<svg id="Calque_1" data-name="Calque 1" xmlns="http://www.w3.org/2000/svg" width="1600" height="969.03" viewBox="0 0 1600 969.03">
  <title>bkg-waves</title>
  <path d="M0,682c35.55,0,59,31.05,92,31.05s62.68-31.5,116.68-31.5,55.48,27,90.32,27,52.84-23.7,94-23.7,37.15,22.61,85,22.61,52.5-19.75,89-19.75c48,0,37,18.93,113.16,18.93,43.5,0,55.42-33.26,98.92-33.26,32.42,0,52.42,36.08,98.62,36.08,34.8,0,44.8-33.42,94.8-33.42,35.55,0,59.5,37.05,92.5,37.05s62.68-31.5,116.68-31.5,55.48,27,90.32,27,52.84-23.7,94-23.7c50.33,0,63,29,103,29,47.85,0,68-31.81,131-31.81" transform="translate(0 -24.56)" fill="none" stroke="#3cafe7" stroke-miterlimit="10" stroke-width="9"/>
  <path d="M0,824.35c47.85,0,69.27,18.91,110.43,18.91s63.83-23.69,107.9-23.69c34.84,0,50.32,26.95,104.32,26.95S406.33,815,439.33,815s56.95,37.06,92.5,37.06c50,0,60-33.42,94.8-33.42,46.2,0,66.2,36.08,98.62,36.08,43.5,0,55.42-33.27,98.92-33.27,41.42,0,42.28,26.24,91.78,26.24,36.5,0,51-27.05,98.88-27.05s55.34,22.6,96.5,22.6,59.16-23.69,94-23.69,36.32,26.95,90.32,26.95,83.68-31.5,116.68-31.5,78.78,31.06,114.34,31.06c22.33,0,52.83-21.73,73.33-21.73" transform="translate(0 -24.56)" fill="none" stroke="#3cafe7" stroke-miterlimit="10" stroke-width="9"/>
  <path d="M1600,958.7c-47.85,0-69.27,18.91-110.43,18.91s-63.83-23.7-107.9-23.7c-34.84,0-50.32,27-104.32,27s-83.68-31.5-116.68-31.5-57,37-92.5,37c-50,0-60-33.42-94.8-33.42-46.2,0-66.2,36.08-98.62,36.08-43.5,0-55.42-33.26-98.92-33.26-41.42,0-42.28,26.24-91.78,26.24-36.5,0-51-27.06-98.88-27.06s-55.34,22.61-96.5,22.61-59.16-23.7-94-23.7-36.32,27-90.32,27-83.68-31.5-116.68-31.5-78.78,31-114.34,31C51,980.42,20.5,958.7,0,958.7" transform="translate(0 -24.56)" fill="none" stroke="#3cafe7" stroke-miterlimit="10" stroke-width="9"/>
  <path d="M0,314c35.55,0,59,31,92,31s62.68-31.5,116.68-31.5,55.48,27,90.32,27,52.84-23.7,94-23.7,37.15,22.61,85,22.61,52.5-19.75,89-19.75c48,0,37,18.93,113.16,18.93,43.5,0,55.42-33.26,98.92-33.26,32.42,0,52.42,36.08,98.62,36.08,34.8,0,44.8-33.42,94.8-33.42,35.55,0,59.5,37,92.5,37s62.68-31.5,116.68-31.5,55.48,27,90.32,27,52.84-23.7,94-23.7c50.33,0,63,29,103,29,47.85,0,68-31.81,131-31.81" transform="translate(0 -24.56)" fill="none" stroke="#3cafe7" stroke-miterlimit="10" stroke-width="9" opacity="0.5"/>
  <path d="M0,432.35c47.85,0,69.27,18.91,110.43,18.91s63.83-23.69,107.9-23.69c34.84,0,50.32,26.95,104.32,26.95S406.33,423,439.33,423s56.95,37.06,92.5,37.06c50,0,60-33.42,94.8-33.42,46.2,0,66.2,36.08,98.62,36.08,43.5,0,55.42-33.27,98.92-33.27,41.42,0,42.28,26.24,91.78,26.24,36.5,0,51-27,98.88-27s55.34,22.6,96.5,22.6,59.16-23.69,94-23.69,36.32,26.95,90.32,26.95,83.68-31.5,116.68-31.5,78.78,31.06,114.34,31.06c22.33,0,52.83-21.73,73.33-21.73" transform="translate(0 -24.56)" fill="none" stroke="#3cafe7" stroke-miterlimit="10" stroke-width="9" opacity="0.6"/>
  <path d="M1600,555.7c-47.85,0-69.27,18.91-110.43,18.91s-63.83-23.7-107.9-23.7c-34.84,0-50.32,27-104.32,27s-83.68-31.5-116.68-31.5-57,37-92.5,37c-50,0-60-33.42-94.8-33.42-46.2,0-66.2,36.08-98.62,36.08-43.5,0-55.42-33.26-98.92-33.26-41.42,0-42.28,26.24-91.78,26.24-36.5,0-51-27.06-98.88-27.06s-55.34,22.61-96.5,22.61-59.16-23.7-94-23.7-36.32,27-90.32,27-83.68-31.5-116.68-31.5-78.78,31-114.34,31C51,577.42,20.5,555.7,0,555.7" transform="translate(0 -24.56)" fill="none" stroke="#3cafe7" stroke-miterlimit="10" stroke-width="9" opacity="0.78"/>
  <path d="M0,37.72c35.55,0,59,31.05,92,31.05s62.68-31.5,116.68-31.5,55.48,27,90.32,27,52.84-23.7,94-23.7,37.15,22.61,85,22.61,52.5-19.75,89-19.75c48,0,37,18.93,113.16,18.93,43.5,0,55.42-33.26,98.92-33.26,32.42,0,52.42,36.08,98.62,36.08,34.8,0,44.8-33.42,94.8-33.42,35.55,0,59.5,37.05,92.5,37.05s62.68-31.5,116.68-31.5,55.48,27,90.32,27,52.84-23.7,94-23.7c50.33,0,63,29,103,29,47.85,0,68-31.81,131-31.81" transform="translate(0 -24.56)" fill="none" stroke="#3cafe7" stroke-miterlimit="10" stroke-width="9" opacity="0.25"/>
  <path d="M0,122c47.85,0,69.27,18.91,110.43,18.91s63.83-23.69,107.9-23.69c34.84,0,50.32,26.95,104.32,26.95s83.68-31.5,116.68-31.5,56.95,37.06,92.5,37.06c50,0,60-33.42,94.8-33.42,46.2,0,66.2,36.08,98.62,36.08,43.5,0,55.42-33.27,98.92-33.27,41.42,0,42.28,26.24,91.78,26.24,36.5,0,51-27,98.88-27s55.34,22.6,96.5,22.6,59.16-23.69,94-23.69,36.32,26.95,90.32,26.95,83.68-31.5,116.68-31.5,78.78,31.06,114.34,31.06C1549,143.76,1579.5,122,1600,122" transform="translate(0 -24.56)" fill="none" stroke="#3cafe7" stroke-miterlimit="10" stroke-width="9" opacity="0.3"/>
  <path d="M1600,215.38c-47.85,0-69.27,18.91-110.43,18.91s-63.83-23.7-107.9-23.7c-34.84,0-50.32,27-104.32,27s-83.68-31.5-116.68-31.5-57,37-92.5,37c-50,0-60-33.42-94.8-33.42-46.2,0-66.2,36.08-98.62,36.08-43.5,0-55.42-33.26-98.92-33.26-41.42,0-42.28,26.24-91.78,26.24-36.5,0-51-27.06-98.88-27.06s-55.34,22.61-96.5,22.61-59.16-23.7-94-23.7-36.32,27-90.32,27-83.68-31.5-116.68-31.5-78.78,31-114.34,31C51,237.1,20.5,215.38,0,215.38" transform="translate(0 -24.56)" fill="none" stroke="#3cafe7" stroke-miterlimit="10" stroke-width="9" opacity="0.45"/>
</svg>
